<svg height="416pt" viewBox="-55 0 416 416.238" width="416pt" xmlns="http://www.w3.org/2000/svg"><path d="m290.28125 27.679688-56.101562 56.097656v-4.816406c0-43.609376-35.351563-78.960938-78.960938-78.960938s-78.960938 35.351562-78.960938 78.960938v141.78125c.003907 6.300781.761719 12.578124 2.257813 18.699218l-25.140625 25.140625c-6.25-14.203125-9.464844-29.554687-9.433594-45.074219 0-5.523437-4.476562-10-10-10-5.519531 0-10 4.476563-10 10-.046875 20.886719 4.902344 41.484376 14.4375 60.070313l-35.300781 35.300781c-2.542969 2.523438-3.542969 6.210938-2.621094 9.675782.921875 3.460937 3.625 6.164062 7.085938 7.089843 3.464843.921875 7.15625-.078125 9.679687-2.625l31.96875-31.96875c3.988282 5.4375 8.386719 10.5625 13.15625 15.328125 21.5625 21.664063 50.058594 35.054688 80.5 37.824219v46.035156h-37.082031c-5.523437 0-10 4.476563-10 10 0 5.523438 4.476563 10 10 10h98.902344c5.523437 0 10-4.476562 10-10 0-5.523437-4.476563-10-10-10h-41.832031v-45.671875c69.464843-3.945312 123.746093-61.476562 123.65625-131.054687 0-5.523438-4.476563-10-10-10-5.523438 0-10 4.476562-10 10-.03125 45.007812-27.148438 85.570312-68.722657 102.796875-41.578125 17.226562-89.4375 7.730468-121.289062-24.0625-4.777344-4.777344-9.113281-9.976563-12.953125-15.53125l23.035156-23.035156c14.019531 24.71875 40.234375 40 68.652344 40.023437 43.539062 0 78.960937-35.636719 78.960937-79.441406v-108.195313l70.246094-70.246094c3.90625-3.90625 3.90625-10.238281 0-14.140624-3.90625-3.90625-10.238281-3.90625-14.140625 0zm-194.027344 193.066406v-141.78125c0-32.5625 26.398438-58.960938 58.960938-58.960938s58.960937 26.398438 58.960937 58.960938v24.816406l-117.902343 117.902344c0-.316406-.019532-.625-.019532-.9375zm117.921875-.480469c0 32.773437-26.449219 59.441406-58.960937 59.441406-23.234375-.027343-44.292969-13.679687-53.800782-34.878906l112.761719-112.761719zm0 0"/></svg>